<?xml version="1.0" encoding="UTF-8"?>
<!--Generator: Apple Native CoreSVG 175.5-->
<!DOCTYPE svg
PUBLIC "-//W3C//DTD SVG 1.1//EN"
       "http://www.w3.org/Graphics/SVG/1.1/DTD/svg11.dtd">
<svg version="1.1" xmlns="http://www.w3.org/2000/svg" xmlns:xlink="http://www.w3.org/1999/xlink" width="3300" height="2200">
 <!--glyph: "uni100307.medium", point size: 100.0, font version: "18.0d9e1", template writer version: "84"-->
 <g id="Notes">
  <rect height="2200" id="artboard" style="fill:white;opacity:1" width="3300" x="0" y="0"/>
  <line style="fill:none;stroke:black;opacity:1;stroke-width:0.5;" x1="263" x2="3036" y1="292" y2="292"/>
  <text style="stroke:none;fill:black;font-family:sans-serif;font-size:13;font-weight:bold;" transform="matrix(1 0 0 1 263 322)">Weight/Scale Variations</text>
  <text style="stroke:none;fill:black;font-family:sans-serif;font-size:13;text-anchor:middle;" transform="matrix(1 0 0 1 559.711 322)">Ultralight</text>
  <text style="stroke:none;fill:black;font-family:sans-serif;font-size:13;text-anchor:middle;" transform="matrix(1 0 0 1 856.422 322)">Thin</text>
  <text style="stroke:none;fill:black;font-family:sans-serif;font-size:13;text-anchor:middle;" transform="matrix(1 0 0 1 1153.13 322)">Light</text>
  <text style="stroke:none;fill:black;font-family:sans-serif;font-size:13;text-anchor:middle;" transform="matrix(1 0 0 1 1449.84 322)">Regular</text>
  <text style="stroke:none;fill:black;font-family:sans-serif;font-size:13;text-anchor:middle;" transform="matrix(1 0 0 1 1746.56 322)">Medium</text>
  <text style="stroke:none;fill:black;font-family:sans-serif;font-size:13;text-anchor:middle;" transform="matrix(1 0 0 1 2043.27 322)">Semibold</text>
  <text style="stroke:none;fill:black;font-family:sans-serif;font-size:13;text-anchor:middle;" transform="matrix(1 0 0 1 2339.98 322)">Bold</text>
  <text style="stroke:none;fill:black;font-family:sans-serif;font-size:13;text-anchor:middle;" transform="matrix(1 0 0 1 2636.69 322)">Heavy</text>
  <text style="stroke:none;fill:black;font-family:sans-serif;font-size:13;text-anchor:middle;" transform="matrix(1 0 0 1 2933.4 322)">Black</text>
  <line style="fill:none;stroke:black;opacity:1;stroke-width:0.5;" x1="263" x2="3036" y1="1903" y2="1903"/>
  <g transform="matrix(1 0 0 1 263 1933)">
   <path d="M9.24805 0.830078Q10.8691 0.830078 12.2949 0.214844Q13.7207-0.400391 14.8096-1.49414Q15.8984-2.58789 16.5186-4.01367Q17.1387-5.43945 17.1387-7.05078Q17.1387-8.66211 16.5186-10.0879Q15.8984-11.5137 14.8047-12.6074Q13.7109-13.7012 12.2852-14.3164Q10.8594-14.9316 9.23828-14.9316Q7.62695-14.9316 6.20117-14.3164Q4.77539-13.7012 3.69141-12.6074Q2.60742-11.5137 1.9873-10.0879Q1.36719-8.66211 1.36719-7.05078Q1.36719-5.43945 1.9873-4.01367Q2.60742-2.58789 3.69629-1.49414Q4.78516-0.400391 6.21094 0.214844Q7.63672 0.830078 9.24805 0.830078ZM9.24805-0.654297Q7.91992-0.654297 6.7627-1.14746Q5.60547-1.64062 4.73145-2.51953Q3.85742-3.39844 3.36426-4.56055Q2.87109-5.72266 2.87109-7.05078Q2.87109-8.37891 3.35938-9.54102Q3.84766-10.7031 4.72168-11.582Q5.5957-12.4609 6.75293-12.9541Q7.91016-13.4473 9.23828-13.4473Q10.5762-13.4473 11.7383-12.9541Q12.9004-12.4609 13.7793-11.582Q14.6582-10.7031 15.1514-9.54102Q15.6445-8.37891 15.6445-7.05078Q15.6445-5.72266 15.1514-4.56055Q14.6582-3.39844 13.7793-2.51953Q12.9004-1.64062 11.7432-1.14746Q10.5859-0.654297 9.24805-0.654297ZM5.6543-7.05078Q5.6543-6.72852 5.85938-6.52832Q6.06445-6.32812 6.40625-6.32812L8.51562-6.32812L8.51562-4.20898Q8.51562-3.88672 8.71094-3.67676Q8.90625-3.4668 9.23828-3.4668Q9.56055-3.4668 9.77051-3.67676Q9.98047-3.88672 9.98047-4.20898L9.98047-6.32812L12.0898-6.32812Q12.4219-6.32812 12.627-6.52832Q12.832-6.72852 12.832-7.05078Q12.832-7.38281 12.627-7.58789Q12.4219-7.79297 12.0898-7.79297L9.98047-7.79297L9.98047-9.90234Q9.98047-10.2344 9.77051-10.4443Q9.56055-10.6543 9.23828-10.6543Q8.90625-10.6543 8.71094-10.4443Q8.51562-10.2344 8.51562-9.90234L8.51562-7.79297L6.40625-7.79297Q6.06445-7.79297 5.85938-7.58789Q5.6543-7.38281 5.6543-7.05078Z"/>
  </g>
  <g transform="matrix(1 0 0 1 281.867 1933)">
   <path d="M11.709 2.91016Q13.75 2.91016 15.5518 2.12891Q17.3535 1.34766 18.7305-0.0292969Q20.1074-1.40625 20.8887-3.20801Q21.6699-5.00977 21.6699-7.05078Q21.6699-9.0918 20.8887-10.8936Q20.1074-12.6953 18.7305-14.0723Q17.3535-15.4492 15.5469-16.2305Q13.7402-17.0117 11.6992-17.0117Q9.6582-17.0117 7.85645-16.2305Q6.05469-15.4492 4.68262-14.0723Q3.31055-12.6953 2.5293-10.8936Q1.74805-9.0918 1.74805-7.05078Q1.74805-5.00977 2.5293-3.20801Q3.31055-1.40625 4.6875-0.0292969Q6.06445 1.34766 7.86621 2.12891Q9.66797 2.91016 11.709 2.91016ZM11.709 1.25Q9.98047 1.25 8.47656 0.605469Q6.97266-0.0390625 5.83496-1.17676Q4.69727-2.31445 4.05762-3.81836Q3.41797-5.32227 3.41797-7.05078Q3.41797-8.7793 4.05762-10.2832Q4.69727-11.7871 5.83008-12.9297Q6.96289-14.0723 8.4668-14.7119Q9.9707-15.3516 11.6992-15.3516Q13.4277-15.3516 14.9365-14.7119Q16.4453-14.0723 17.583-12.9297Q18.7207-11.7871 19.3652-10.2832Q20.0098-8.7793 20.0098-7.05078Q20.0098-5.32227 19.3701-3.81836Q18.7305-2.31445 17.5879-1.17676Q16.4453-0.0390625 14.9414 0.605469Q13.4375 1.25 11.709 1.25ZM7.17773-7.05078Q7.17773-6.69922 7.41211-6.47461Q7.64648-6.25 8.01758-6.25L10.8887-6.25L10.8887-3.36914Q10.8887-2.99805 11.1133-2.76855Q11.3379-2.53906 11.6895-2.53906Q12.0605-2.53906 12.29-2.76855Q12.5195-2.99805 12.5195-3.36914L12.5195-6.25L15.4004-6.25Q15.7715-6.25 16.001-6.47461Q16.2305-6.69922 16.2305-7.05078Q16.2305-7.42188 16.001-7.65137Q15.7715-7.88086 15.4004-7.88086L12.5195-7.88086L12.5195-10.752Q12.5195-11.1328 12.29-11.3623Q12.0605-11.5918 11.6895-11.5918Q11.3379-11.5918 11.1133-11.3574Q10.8887-11.123 10.8887-10.752L10.8887-7.88086L8.01758-7.88086Q7.63672-7.88086 7.40723-7.65137Q7.17773-7.42188 7.17773-7.05078Z"/>
  </g>
  <g transform="matrix(1 0 0 1 305.646 1933)">
   <path d="M14.9707 5.66406Q17.0605 5.66406 18.96 5.01465Q20.8594 4.36523 22.4512 3.19336Q24.043 2.02148 25.2197 0.429688Q26.3965-1.16211 27.0459-3.06641Q27.6953-4.9707 27.6953-7.05078Q27.6953-9.14062 27.0459-11.04Q26.3965-12.9395 25.2197-14.5312Q24.043-16.123 22.4512-17.2998Q20.8594-18.4766 18.9551-19.126Q17.0508-19.7754 14.9609-19.7754Q12.8711-19.7754 10.9717-19.126Q9.07227-18.4766 7.48535-17.2998Q5.89844-16.123 4.72168-14.5312Q3.54492-12.9395 2.90039-11.04Q2.25586-9.14062 2.25586-7.05078Q2.25586-4.9707 2.90527-3.06641Q3.55469-1.16211 4.72656 0.429688Q5.89844 2.02148 7.49023 3.19336Q9.08203 4.36523 10.9814 5.01465Q12.8809 5.66406 14.9707 5.66406ZM14.9707 3.84766Q13.1641 3.84766 11.5283 3.2959Q9.89258 2.74414 8.53516 1.74805Q7.17773 0.751953 6.17676-0.610352Q5.17578-1.97266 4.62891-3.6084Q4.08203-5.24414 4.08203-7.05078Q4.08203-8.86719 4.62891-10.5029Q5.17578-12.1387 6.17188-13.501Q7.16797-14.8633 8.52539-15.8594Q9.88281-16.8555 11.5186-17.4023Q13.1543-17.9492 14.9609-17.9492Q16.7773-17.9492 18.4131-17.4023Q20.0488-16.8555 21.4111-15.8594Q22.7734-14.8633 23.7744-13.501Q24.7754-12.1387 25.3223-10.5029Q25.8691-8.86719 25.8691-7.05078Q25.8691-5.24414 25.3223-3.6084Q24.7754-1.97266 23.7793-0.610352Q22.7832 0.751953 21.4209 1.74805Q20.0586 2.74414 18.4229 3.2959Q16.7871 3.84766 14.9707 3.84766ZM9.19922-7.05078Q9.19922-6.66992 9.45801-6.4209Q9.7168-6.17188 10.1172-6.17188L14.0625-6.17188L14.0625-2.2168Q14.0625-1.81641 14.3115-1.55762Q14.5605-1.29883 14.9512-1.29883Q15.3516-1.29883 15.6104-1.55273Q15.8691-1.80664 15.8691-2.2168L15.8691-6.17188L19.8242-6.17188Q20.2246-6.17188 20.4785-6.4209Q20.7324-6.66992 20.7324-7.05078Q20.7324-7.46094 20.4785-7.71484Q20.2246-7.96875 19.8242-7.96875L15.8691-7.96875L15.8691-11.9141Q15.8691-12.3242 15.6104-12.583Q15.3516-12.8418 14.9512-12.8418Q14.5605-12.8418 14.3115-12.583Q14.0625-12.3242 14.0625-11.9141L14.0625-7.96875L10.1172-7.96875Q9.70703-7.96875 9.45312-7.71484Q9.19922-7.46094 9.19922-7.05078Z"/>
  </g>
  <text style="stroke:none;fill:black;font-family:sans-serif;font-size:13;font-weight:bold;" transform="matrix(1 0 0 1 263 1953)">Design Variations</text>
  <text style="stroke:none;fill:black;font-family:sans-serif;font-size:13;" transform="matrix(1 0 0 1 263 1971)">Symbols are supported in up to nine weights and three scales.</text>
  <text style="stroke:none;fill:black;font-family:sans-serif;font-size:13;" transform="matrix(1 0 0 1 263 1989)">For optimal layout with text and other symbols, vertically align</text>
  <text style="stroke:none;fill:black;font-family:sans-serif;font-size:13;" transform="matrix(1 0 0 1 263 2007)">symbols with the adjacent text.</text>
  <line style="fill:none;stroke:#00AEEF;stroke-width:0.5;opacity:1.0;" x1="776" x2="776" y1="1919" y2="1933"/>
  <g transform="matrix(1 0 0 1 776 1933)">
   <path d="M3.31055 0.15625Q3.70117 0.15625 3.91602-0.00976562Q4.13086-0.175781 4.26758-0.585938L5.52734-4.0332L11.2891-4.0332L12.5488-0.585938Q12.6855-0.175781 12.9004-0.00976562Q13.1152 0.15625 13.4961 0.15625Q13.8867 0.15625 14.1162-0.0585938Q14.3457-0.273438 14.3457-0.644531Q14.3457-0.869141 14.2383-1.17188L9.6582-13.3691Q9.48242-13.8184 9.17969-14.043Q8.87695-14.2676 8.4082-14.2676Q7.5-14.2676 7.17773-13.3789L2.59766-1.16211Q2.49023-0.859375 2.49023-0.634766Q2.49023-0.263672 2.70996-0.0537109Q2.92969 0.15625 3.31055 0.15625ZM6.00586-5.51758L8.37891-12.0898L8.42773-12.0898L10.8008-5.51758Z"/>
  </g>
  <line style="fill:none;stroke:#00AEEF;stroke-width:0.5;opacity:1.0;" x1="793.197" x2="793.197" y1="1919" y2="1933"/>
  <text style="stroke:none;fill:black;font-family:sans-serif;font-size:13;font-weight:bold;" transform="matrix(1 0 0 1 776 1953)">Margins</text>
  <text style="stroke:none;fill:black;font-family:sans-serif;font-size:13;" transform="matrix(1 0 0 1 776 1971)">Leading and trailing margins on the left and right side of each symbol</text>
  <text style="stroke:none;fill:black;font-family:sans-serif;font-size:13;" transform="matrix(1 0 0 1 776 1989)">can be adjusted by modifying the x-location of the margin guidelines.</text>
  <text style="stroke:none;fill:black;font-family:sans-serif;font-size:13;" transform="matrix(1 0 0 1 776 2007)">Modifications are automatically applied proportionally to all</text>
  <text style="stroke:none;fill:black;font-family:sans-serif;font-size:13;" transform="matrix(1 0 0 1 776 2025)">scales and weights.</text>
  <g transform="matrix(1 0 0 1 1289 1933)">
   <path d="M2.8418 1.86523L4.54102 3.57422Q5.18555 4.22852 5.90332 4.17969Q6.62109 4.13086 7.31445 3.35938L18.0078-8.42773L17.041-9.4043L6.42578 2.27539Q6.16211 2.57812 5.89355 2.61719Q5.625 2.65625 5.27344 2.30469L4.10156 1.14258Q3.75 0.791016 3.79395 0.522461Q3.83789 0.253906 4.14062-0.0195312L15.6152-10.8203L14.6387-11.7871L3.04688-0.898438Q2.30469-0.214844 2.25098 0.498047Q2.19727 1.21094 2.8418 1.86523ZM9.25781-16.3281Q8.94531-16.0254 8.90625-15.6348Q8.86719-15.2441 9.04297-14.9512Q9.21875-14.6777 9.55566-14.541Q9.89258-14.4043 10.3809-14.5215Q11.4746-14.7754 12.5977-14.7314Q13.7207-14.6875 14.7949-13.9844L14.209-12.5293Q13.9551-11.9043 14.0674-11.4404Q14.1797-10.9766 14.5801-10.5664L16.875-8.25195Q17.2363-7.88086 17.5781-7.82227Q17.9199-7.76367 18.3398-7.8418L19.4043-8.03711L20.0684-7.36328L20.0293-6.80664Q20-6.43555 20.1221-6.12305Q20.2441-5.81055 20.6055-5.44922L21.3672-4.70703Q21.7285-4.3457 22.1533-4.33105Q22.5781-4.31641 22.9297-4.66797L25.8398-7.58789Q26.1914-7.93945 26.1816-8.35449Q26.1719-8.76953 25.8105-9.13086L25.0391-9.89258Q24.6875-10.2539 24.3799-10.3857Q24.0723-10.5176 23.7109-10.4883L23.1348-10.4395L22.4902-11.0742L22.7344-12.1973Q22.832-12.6172 22.6953-12.9834Q22.5586-13.3496 22.1191-13.7891L19.9219-15.9766Q18.6719-17.2168 17.2607-17.8369Q15.8496-18.457 14.4189-18.4814Q12.9883-18.5059 11.665-17.959Q10.3418-17.4121 9.25781-16.3281ZM10.752-15.957Q11.6602-16.6211 12.7002-16.9043Q13.7402-17.1875 14.8047-17.085Q15.8691-16.9824 16.8701-16.5137Q17.8711-16.0449 18.7012-15.2051L21.1328-12.793Q21.3086-12.6172 21.3525-12.4512Q21.3965-12.2852 21.3379-12.0312L21.0156-10.5469L22.5195-9.0625L23.5059-9.12109Q23.6914-9.13086 23.7891-9.09668Q23.8867-9.0625 24.0332-8.91602L24.6094-8.33984L22.168-5.89844L21.5918-6.47461Q21.4453-6.62109 21.4062-6.71875Q21.3672-6.81641 21.377-7.01172L21.4453-7.98828L19.9512-9.47266L18.4277-9.21875Q18.1836-9.16992 18.042-9.2041Q17.9004-9.23828 17.7148-9.41406L15.7129-11.416Q15.5176-11.5918 15.4932-11.7529Q15.4688-11.9141 15.5859-12.1875L16.4648-14.2773Q15.293-15.3711 13.8281-15.791Q12.3633-16.2109 10.8398-15.7617Q10.7227-15.7324 10.6885-15.8057Q10.6543-15.8789 10.752-15.957Z"/>
  </g>
  <text style="stroke:none;fill:black;font-family:sans-serif;font-size:13;font-weight:bold;" transform="matrix(1 0 0 1 1289 1953)">Exporting</text>
  <text style="stroke:none;fill:black;font-family:sans-serif;font-size:13;" transform="matrix(1 0 0 1 1289 1971)">Symbols should be outlined when exporting to ensure the</text>
  <text style="stroke:none;fill:black;font-family:sans-serif;font-size:13;" transform="matrix(1 0 0 1 1289 1989)">design is preserved when submitting to Xcode.</text>
  <text id="template-version" style="stroke:none;fill:black;font-family:sans-serif;font-size:13;text-anchor:end;" transform="matrix(1 0 0 1 3036 1933)">Template v.2.0</text>
  <text style="stroke:none;fill:black;font-family:sans-serif;font-size:13;text-anchor:end;" transform="matrix(1 0 0 1 3036 1951)">Requires Xcode 12 or greater</text>
  <text id="descriptive-name" style="stroke:none;fill:black;font-family:sans-serif;font-size:13;text-anchor:end;" transform="matrix(1 0 0 1 3036 1969)">Generated from line.3.horizontal</text>
  <text style="stroke:none;fill:black;font-family:sans-serif;font-size:13;text-anchor:end;" transform="matrix(1 0 0 1 3036 1987)">Typeset at 100 points</text>
  <text style="stroke:none;fill:black;font-family:sans-serif;font-size:13;" transform="matrix(1 0 0 1 263 726)">Small</text>
  <text style="stroke:none;fill:black;font-family:sans-serif;font-size:13;" transform="matrix(1 0 0 1 263 1156)">Medium</text>
  <text style="stroke:none;fill:black;font-family:sans-serif;font-size:13;" transform="matrix(1 0 0 1 263 1586)">Large</text>
 </g>
 <g id="Guides">
  <g id="H-reference" style="fill:#27AAE1;stroke:none;" transform="matrix(1 0 0 1 339 696)">
   <path d="M0.976562 0L3.66211 0L29.3457-67.1387L30.0293-67.1387L30.0293-70.459L28.125-70.459ZM11.6699-24.4629L46.9727-24.4629L46.2402-26.709L12.4512-26.709ZM55.127 0L57.7637 0L30.6152-70.459L29.4434-70.459L29.4434-67.1387Z"/>
  </g>
  <line id="Baseline-S" style="fill:none;stroke:#27AAE1;opacity:1;stroke-width:0.5;" x1="263" x2="3036" y1="696" y2="696"/>
  <line id="Capline-S" style="fill:none;stroke:#27AAE1;opacity:1;stroke-width:0.5;" x1="263" x2="3036" y1="625.541" y2="625.541"/>
  <g id="H-reference" style="fill:#27AAE1;stroke:none;" transform="matrix(1 0 0 1 339 1126)">
   <path d="M0.976562 0L3.66211 0L29.3457-67.1387L30.0293-67.1387L30.0293-70.459L28.125-70.459ZM11.6699-24.4629L46.9727-24.4629L46.2402-26.709L12.4512-26.709ZM55.127 0L57.7637 0L30.6152-70.459L29.4434-70.459L29.4434-67.1387Z"/>
  </g>
  <line id="Baseline-M" style="fill:none;stroke:#27AAE1;opacity:1;stroke-width:0.5;" x1="263" x2="3036" y1="1126" y2="1126"/>
  <line id="Capline-M" style="fill:none;stroke:#27AAE1;opacity:1;stroke-width:0.5;" x1="263" x2="3036" y1="1055.54" y2="1055.54"/>
  <g id="H-reference" style="fill:#27AAE1;stroke:none;" transform="matrix(1 0 0 1 339 1556)">
   <path d="M0.976562 0L3.66211 0L29.3457-67.1387L30.0293-67.1387L30.0293-70.459L28.125-70.459ZM11.6699-24.4629L46.9727-24.4629L46.2402-26.709L12.4512-26.709ZM55.127 0L57.7637 0L30.6152-70.459L29.4434-70.459L29.4434-67.1387Z"/>
  </g>
  <line id="Baseline-L" style="fill:none;stroke:#27AAE1;opacity:1;stroke-width:0.5;" x1="263" x2="3036" y1="1556" y2="1556"/>
  <line id="Capline-L" style="fill:none;stroke:#27AAE1;opacity:1;stroke-width:0.5;" x1="263" x2="3036" y1="1485.54" y2="1485.54"/>
  <line id="left-margin" style="fill:none;stroke:#00AEEF;stroke-width:0.5;opacity:1.0;" x1="1388" x2="1388" y1="1030.79" y2="1150.12"/>
  <line id="right-margin" style="fill:none;stroke:#00AEEF;stroke-width:0.5;opacity:1.0;" x1="1511.68" x2="1511.68" y1="1030.79" y2="1150.12"/>
 </g>
 <g id="Symbols">
  <g id="Black-L" transform="matrix(1 0 0 1 2849.91 1556)">
   <path d="M24.8018 5.2386L142.159 5.2386Q145.846 5.2386 148.372 2.519Q150.899-0.200593 150.899-3.79327Q150.899-7.48075 148.372-10.1523Q145.846-12.8239 142.159-12.8239L24.8018-12.8239Q21.1727-12.8239 18.6284-10.1231Q16.084-7.42235 16.084-3.79327Q16.084-0.317406 18.6284 2.4606Q21.1727 5.2386 24.8018 5.2386ZM24.8018-26.2132L142.159-26.2132Q145.846-26.2132 148.372-28.9432Q150.899-31.6732 150.899-35.2438Q150.899-38.9533 148.372-41.6145Q145.846-44.2757 142.159-44.2757L24.8018-44.2757Q21.1727-44.2757 18.6284-41.5853Q16.084-38.8949 16.084-35.2438Q16.084-31.79 18.6284-29.0016Q21.1727-26.2132 24.8018-26.2132ZM24.8018-57.6261L142.159-57.6261Q145.846-57.6261 148.372-60.3457Q150.899-63.0653 150.899-66.6373Q150.899-70.3455 148.372-73.0067Q145.846-75.6679 142.159-75.6679L24.8018-75.6679Q21.1727-75.6679 18.6284-72.9775Q16.084-70.2871 16.084-66.6373Q16.084-63.1821 18.6284-60.4041Q21.1727-57.6261 24.8018-57.6261Z"/>
  </g>
  <g id="Heavy-L" transform="matrix(1 0 0 1 2554.11 1556)">
   <path d="M23.7886 3.31834L141.329 3.31834Q144.582 3.31834 146.826 0.936165Q149.07-1.44601 149.07-4.64522Q149.07-7.89787 146.826-10.2503Q144.582-12.6027 141.329-12.6027L23.7886-12.6027Q20.5806-12.6027 18.3323-10.228Q16.084-7.85324 16.084-4.64522Q16.084-1.53526 18.3323 0.891542Q20.5806 3.31834 23.7886 3.31834ZM23.7886-27.2583L141.329-27.2583Q144.582-27.2583 146.826-29.6553Q149.07-32.0524 149.07-35.2158Q149.07-38.5042 146.826-40.8418Q144.582-43.1794 141.329-43.1794L23.7886-43.1794Q20.5806-43.1794 18.3323-40.8195Q16.084-38.4596 16.084-35.2158Q16.084-32.1416 18.3323-29.7Q20.5806-27.2583 23.7886-27.2583ZM23.7886-57.814L141.329-57.814Q144.582-57.814 146.826-60.1962Q149.07-62.5784 149.07-65.7478Q149.07-69.0302 146.826-71.3678Q144.582-73.7053 141.329-73.7053L23.7886-73.7053Q20.5806-73.7053 18.3323-71.3455Q16.084-68.9856 16.084-65.7478Q16.084-62.6676 18.3323-60.2408Q20.5806-57.814 23.7886-57.814Z"/>
  </g>
  <g id="Bold-L" transform="matrix(1 0 0 1 2258.51 1556)">
   <path d="M22.5257 1.17602L140.358 1.17602Q143.07 1.17602 144.961-0.791296Q146.851-2.75861 146.851-5.46297Q146.851-8.17451 144.961-10.1311Q143.07-12.0877 140.358-12.0877L22.5257-12.0877Q19.8434-12.0877 17.9637-10.1165Q16.084-8.14531 16.084-5.46297Q16.084-2.81702 17.9637-0.8205Q19.8434 1.17602 22.5257 1.17602ZM22.5257-28.551L140.358-28.551Q143.07-28.551 144.961-30.5369Q146.851-32.5227 146.851-35.1758Q146.851-37.9386 144.961-39.8767Q143.07-41.8148 140.358-41.8148L22.5257-41.8148Q19.8434-41.8148 17.9637-39.8621Q16.084-37.9094 16.084-35.1758Q16.084-32.5811 17.9637-30.5661Q19.8434-28.551 22.5257-28.551ZM22.5257-58.2717L140.358-58.2717Q143.07-58.2717 144.961-60.239Q146.851-62.2063 146.851-64.8737Q146.851-67.6222 144.961-69.5603Q143.07-71.4984 140.358-71.4984L22.5257-71.4984Q19.8434-71.4984 17.9637-69.5457Q16.084-67.593 16.084-64.8737Q16.084-62.2647 17.9637-60.2682Q19.8434-58.2717 22.5257-58.2717Z"/>
  </g>
  <g id="Semibold-L" transform="matrix(1 0 0 1 1962.56 1556)">
   <path d="M21.6551-0.300888L139.689-0.300888Q142.028-0.300888 143.675-1.9822Q145.322-3.66351 145.322-6.02672Q145.322-8.36523 143.675-10.049Q142.028-11.7327 139.689-11.7327L21.6551-11.7327Q19.3352-11.7327 17.7096-10.0397Q16.084-8.34665 16.084-6.02672Q16.084-3.70065 17.7096-2.00077Q19.3352-0.300888 21.6551-0.300888ZM21.6551-29.4423L139.689-29.4423Q142.028-29.4423 143.675-31.1446Q145.322-32.8469 145.322-35.1482Q145.322-37.5486 143.675-39.2113Q142.028-40.8741 139.689-40.8741L21.6551-40.8741Q19.3352-40.8741 17.7096-39.202Q16.084-37.53 16.084-35.1482Q16.084-32.884 17.7096-31.1632Q19.3352-29.4423 21.6551-29.4423ZM21.6551-58.5872L139.689-58.5872Q142.028-58.5872 143.675-60.2685Q145.322-61.9498 145.322-64.2711Q145.322-66.6515 143.675-68.3143Q142.028-69.977 139.689-69.977L21.6551-69.977Q19.3352-69.977 17.7096-68.305Q16.084-66.633 16.084-64.2711Q16.084-61.987 17.7096-60.2871Q19.3352-58.5872 21.6551-58.5872Z"/>
  </g>
  <g id="Medium-L" transform="matrix(1 0 0 1 1666.43 1556)">
   <path d="M20.9949-1.42074L139.182-1.42074Q141.237-1.42074 142.7-2.88519Q144.162-4.34964 144.162-6.45418Q144.162-8.50984 142.7-9.98665Q141.237-11.4635 139.182-11.4635L20.9949-11.4635Q18.9498-11.4635 17.5169-9.98139Q16.084-8.49932 16.084-6.45418Q16.084-4.37066 17.5169-2.8957Q18.9498-1.42074 20.9949-1.42074ZM20.9949-30.118L139.182-30.118Q141.237-30.118 142.7-31.6054Q144.162-33.0927 144.162-35.1273Q144.162-37.2529 142.7-38.7068Q141.237-40.1608 139.182-40.1608L20.9949-40.1608Q18.9498-40.1608 17.5169-38.7016Q16.084-37.2424 16.084-35.1273Q16.084-33.1137 17.5169-31.6159Q18.9498-30.118 20.9949-30.118ZM20.9949-58.8264L139.182-58.8264Q141.237-58.8264 142.7-60.2909Q144.162-61.7553 144.162-63.8141Q144.162-65.9155 142.7-67.3695Q141.237-68.8234 139.182-68.8234L20.9949-68.8234Q18.9498-68.8234 17.5169-67.3642Q16.084-65.905 16.084-63.8141Q16.084-61.7764 17.5169-60.3014Q18.9498-58.8264 20.9949-58.8264Z"/>
  </g>
  <g id="Regular-L" transform="matrix(1 0 0 1 1370.48 1556)">
   <path d="M20.1339-2.88142L138.52-2.88142Q140.206-2.88142 141.428-4.063Q142.65-5.24459 142.65-7.01173Q142.65-8.69846 141.428-9.90539Q140.206-11.1123 138.52-11.1123L20.1339-11.1123Q18.4472-11.1123 17.2656-9.90539Q16.084-8.69846 16.084-7.01173Q16.084-5.24459 17.2656-4.063Q18.4472-2.88142 20.1339-2.88142ZM20.1339-30.9995L138.52-30.9995Q140.206-30.9995 141.428-32.2064Q142.65-33.4133 142.65-35.1001Q142.65-36.8672 141.428-38.0488Q140.206-39.2304 138.52-39.2304L20.1339-39.2304Q18.4472-39.2304 17.2656-38.0488Q16.084-36.8672 16.084-35.1001Q16.084-33.4133 17.2656-32.2064Q18.4472-30.9995 20.1339-30.9995ZM20.1339-59.1385L138.52-59.1385Q140.206-59.1385 141.428-60.3201Q142.65-61.5017 142.65-63.2181Q142.65-64.9555 141.428-66.1371Q140.206-67.3187 138.52-67.3187L20.1339-67.3187Q18.4472-67.3187 17.2656-66.1371Q16.084-64.9555 16.084-63.2181Q16.084-61.5017 17.2656-60.3201Q18.4472-59.1385 20.1339-59.1385Z"/>
  </g>
  <g id="Light-L" transform="matrix(1 0 0 1 1074.38 1556)">
   <path d="M19.2104-2.84037L138.212-2.84037Q139.509-2.84037 140.464-3.75517Q141.419-4.66998 141.419-6.0472Q141.419-7.34401 140.464-8.27389Q139.509-9.20377 138.212-9.20377L19.2104-9.20377Q17.9136-9.20377 16.9988-8.27389Q16.084-7.34401 16.084-6.0472Q16.084-4.66998 16.9988-3.75517Q17.9136-2.84037 19.2104-2.84037ZM19.2104-31.8819L138.212-31.8819Q139.509-31.8819 140.464-32.8118Q141.419-33.7417 141.419-35.0385Q141.419-36.4157 140.464-37.3305Q139.509-38.2453 138.212-38.2453L19.2104-38.2453Q17.9136-38.2453 16.9988-37.3305Q16.084-36.4157 16.084-35.0385Q16.084-33.7417 16.9988-32.8118Q17.9136-31.8819 19.2104-31.8819ZM19.2104-60.9034L138.212-60.9034Q139.509-60.9034 140.464-61.8182Q141.419-62.733 141.419-64.0801Q141.419-65.407 140.464-66.3218Q139.509-67.2366 138.212-67.2366L19.2104-67.2366Q17.9136-67.2366 16.9988-66.3218Q16.084-65.407 16.084-64.0801Q16.084-62.733 16.9988-61.8182Q17.9136-60.9034 19.2104-60.9034Z"/>
  </g>
  <g id="Thin-L" transform="matrix(1 0 0 1 778.485 1556)">
   <path d="M17.989-2.78609L137.805-2.78609Q138.586-2.78609 139.188-3.34804Q139.79-3.91 139.79-4.77153Q139.79-5.55264 139.188-6.11611Q138.586-6.67957 137.805-6.67957L17.989-6.67957Q17.2079-6.67957 16.6459-6.11611Q16.084-5.55264 16.084-4.77153Q16.084-3.91 16.6459-3.34804Q17.2079-2.78609 17.989-2.78609ZM17.989-33.049L137.805-33.049Q138.586-33.049 139.188-33.6125Q139.79-34.176 139.79-34.9571Q139.79-35.8186 139.188-36.3806Q138.586-36.9425 137.805-36.9425L17.989-36.9425Q17.2079-36.9425 16.6459-36.3806Q16.084-35.8186 16.084-34.9571Q16.084-34.176 16.6459-33.6125Q17.2079-33.049 17.989-33.049ZM17.989-63.2376L137.805-63.2376Q138.586-63.2376 139.188-63.7996Q139.79-64.3615 139.79-65.22Q139.79-66.0041 139.188-66.5661Q138.586-67.1281 137.805-67.1281L17.989-67.1281Q17.2079-67.1281 16.6459-66.5661Q16.084-66.0041 16.084-65.22Q16.084-64.3615 16.6459-63.7996Q17.2079-63.2376 17.989-63.2376Z"/>
  </g>
  <g id="Ultralight-L" transform="matrix(1 0 0 1 482.191 1556)">
   <path d="M17.3634-2.75828L137.596-2.75828Q138.113-2.75828 138.534-3.13951Q138.956-3.52074 138.956-4.11814Q138.956-4.63511 138.534-5.0109Q138.113-5.38669 137.596-5.38669L17.3634-5.38669Q16.8464-5.38669 16.4652-5.0109Q16.084-4.63511 16.084-4.11814Q16.084-3.52074 16.4652-3.13951Q16.8464-2.75828 17.3634-2.75828ZM17.3634-33.6468L137.596-33.6468Q138.113-33.6468 138.534-34.0226Q138.956-34.3984 138.956-34.9154Q138.956-35.5128 138.534-35.894Q138.113-36.2752 137.596-36.2752L17.3634-36.2752Q16.8464-36.2752 16.4652-35.894Q16.084-35.5128 16.084-34.9154Q16.084-34.3984 16.4652-34.0226Q16.8464-33.6468 17.3634-33.6468ZM17.3634-64.4332L137.596-64.4332Q138.113-64.4332 138.534-64.8144Q138.956-65.1956 138.956-65.8039Q138.956-66.31 138.534-66.6912Q138.113-67.0725 137.596-67.0725L17.3634-67.0725Q16.8464-67.0725 16.4652-66.6912Q16.084-66.31 16.084-65.8039Q16.084-65.1956 16.4652-64.8144Q16.8464-64.4332 17.3634-64.4332Z"/>
  </g>
  <g id="Black-M" transform="matrix(1 0 0 1 2868.01 1126)">
   <path d="M19.9606-2.22128L110.807-2.22128Q113.985-2.22128 116.149-4.5821Q118.312-6.94293 118.312-10.0117Q118.312-13.1894 116.149-15.4959Q113.985-17.8024 110.807-17.8024L19.9606-17.8024Q16.84-17.8024 14.6505-15.4673Q12.4609-13.1323 12.4609-10.0117Q12.4609-7.05712 14.6505-4.6392Q16.84-2.22128 19.9606-2.22128ZM19.9606-27.4657L110.807-27.4657Q113.985-27.4657 116.149-29.8292Q118.312-32.1928 118.312-35.2563Q118.312-38.4393 116.149-40.743Q113.985-43.0467 110.807-43.0467L19.9606-43.0467Q16.84-43.0467 14.6505-40.7145Q12.4609-38.3822 12.4609-35.2563Q12.4609-32.307 14.6505-29.8863Q16.84-27.4657 19.9606-27.4657ZM19.9606-52.6588L110.807-52.6588Q113.985-52.6588 116.149-55.0196Q118.312-57.3804 118.312-60.4436Q118.312-63.6269 116.149-65.9306Q113.985-68.2343 110.807-68.2343L19.9606-68.2343Q16.84-68.2343 14.6505-65.902Q12.4609-63.5698 12.4609-60.4436Q12.4609-57.4946 14.6505-55.0767Q16.84-52.6588 19.9606-52.6588Z"/>
  </g>
  <g id="Heavy-M" transform="matrix(1 0 0 1 2572.14 1126)">
   <path d="M19.0554-4.10224L110.025-4.10224Q112.814-4.10224 114.726-6.15783Q116.638-8.21342 116.638-10.9335Q116.638-13.7221 114.726-15.7422Q112.814-17.7623 110.025-17.7623L19.0554-17.7623Q16.3104-17.7623 14.3857-15.7204Q12.4609-13.6785 12.4609-10.9335Q12.4609-8.30067 14.3857-6.20146Q16.3104-4.10224 19.0554-4.10224ZM19.0554-28.4058L110.025-28.4058Q112.814-28.4058 114.726-30.4695Q116.638-32.5333 116.638-35.2346Q116.638-38.0419 114.726-40.0539Q112.814-42.0659 110.025-42.0659L19.0554-42.0659Q16.3104-42.0659 14.3857-40.0321Q12.4609-37.9983 12.4609-35.2346Q12.4609-32.6205 14.3857-30.5132Q16.3104-28.4058 19.0554-28.4058ZM19.0554-52.6796L110.025-52.6796Q112.814-52.6796 114.726-54.7352Q116.638-56.7908 116.638-59.4946Q116.638-62.2995 114.726-64.3114Q112.814-66.3234 110.025-66.3234L19.0554-66.3234Q16.3104-66.3234 14.3857-64.2896Q12.4609-62.2558 12.4609-59.4946Q12.4609-56.878 14.3857-54.7788Q16.3104-52.6796 19.0554-52.6796Z"/>
  </g>
  <g id="Bold-M" transform="matrix(1 0 0 1 2276.36 1126)">
   <path d="M18.0427-6.20637L109.15-6.20637Q111.503-6.20637 113.134-7.92051Q114.765-9.63465 114.765-11.9647Q114.765-14.318 113.134-16.0177Q111.503-17.7174 109.15-17.7174L18.0427-17.7174Q15.7179-17.7174 14.0894-16.0034Q12.4609-14.2895 12.4609-11.9647Q12.4609-9.69175 14.0894-7.94906Q15.7179-6.20637 18.0427-6.20637ZM18.0427-29.4576L109.15-29.4576Q111.503-29.4576 113.134-31.1858Q114.765-32.9141 114.765-35.2103Q114.765-37.5974 113.134-39.283Q111.503-40.9686 109.15-40.9686L18.0427-40.9686Q15.7179-40.9686 14.0894-39.2687Q12.4609-37.5689 12.4609-35.2103Q12.4609-32.9712 14.0894-31.2144Q15.7179-29.4576 18.0427-29.4576ZM18.0427-52.7029L109.15-52.7029Q111.503-52.7029 113.134-54.4171Q114.765-56.1312 114.765-58.433Q114.765-60.8145 113.134-62.5001Q111.503-64.1857 109.15-64.1857L18.0427-64.1857Q15.7179-64.1857 14.0894-62.4859Q12.4609-60.786 12.4609-58.433Q12.4609-56.1883 14.0894-54.4456Q15.7179-52.7029 18.0427-52.7029Z"/>
  </g>
  <g id="Semibold-M" transform="matrix(1 0 0 1 1980.3 1126)">
   <path d="M17.3446-7.65695L108.547-7.65695Q110.6-7.65695 112.037-9.13569Q113.474-10.6144 113.474-12.6755Q113.474-14.7288 112.037-16.2077Q110.6-17.6865 108.547-17.6865L17.3446-17.6865Q15.3095-17.6865 13.8852-16.1986Q12.4609-14.7107 12.4609-12.6755Q12.4609-10.6508 13.8852-9.15385Q15.3095-7.65695 17.3446-7.65695ZM17.3446-30.1826L108.547-30.1826Q110.6-30.1826 112.037-31.6796Q113.474-33.1766 113.474-35.1936Q113.474-37.291 112.037-38.7516Q110.6-40.2122 108.547-40.2122L17.3446-40.2122Q15.3095-40.2122 13.8852-38.7425Q12.4609-37.2728 12.4609-35.1936Q12.4609-33.2129 13.8852-31.6978Q15.3095-30.1826 17.3446-30.1826ZM17.3446-52.719L108.547-52.719Q110.6-52.719 112.037-54.1977Q113.474-55.6765 113.474-57.7011Q113.474-59.7909 112.037-61.2515Q110.6-62.712 108.547-62.712L17.3446-62.712Q15.3095-62.712 13.8852-61.2424Q12.4609-59.7727 12.4609-57.7011Q12.4609-55.7128 13.8852-54.2159Q15.3095-52.719 17.3446-52.719Z"/>
  </g>
  <g id="Medium-M" transform="matrix(1 0 0 1 1684.08 1126)">
   <path d="M16.8153-8.75684L108.089-8.75684Q109.915-8.75684 111.205-10.0571Q112.495-11.3574 112.495-13.2146Q112.495-15.0403 111.205-16.3517Q109.915-17.6631 108.089-17.6631L16.8153-17.6631Q14.9998-17.6631 13.7304-16.3466Q12.4609-15.03 12.4609-13.2146Q12.4609-11.3779 13.7304-10.0674Q14.9998-8.75684 16.8153-8.75684ZM16.8153-30.7324L108.089-30.7324Q109.915-30.7324 111.205-32.054Q112.495-33.3757 112.495-35.1809Q112.495-37.0586 111.205-38.3486Q109.915-39.6386 108.089-39.6386L16.8153-39.6386Q14.9998-39.6386 13.7304-38.3435Q12.4609-37.0484 12.4609-35.1809Q12.4609-33.3962 13.7304-32.0643Q14.9998-30.7324 16.8153-30.7324ZM16.8153-52.7312L108.089-52.7312Q109.915-52.7312 111.205-54.0314Q112.495-55.3317 112.495-57.1461Q112.495-59.0147 111.205-60.3046Q109.915-61.5946 108.089-61.5946L16.8153-61.5946Q14.9998-61.5946 13.7304-60.2995Q12.4609-59.0044 12.4609-57.1461Q12.4609-55.3523 13.7304-54.0417Q14.9998-52.7312 16.8153-52.7312Z"/>
  </g>
  <g id="Regular-M" transform="matrix(1 0 0 1 1388 1126)">
   <path d="M16.1248-10.1915L107.492-10.1915Q109.021-10.1915 110.12-11.2589Q111.219-12.3264 111.219-13.9177Q111.219-15.4466 110.12-16.5396Q109.021-17.6325 107.492-17.6325L16.1248-17.6325Q14.5958-17.6325 13.5284-16.5396Q12.4609-15.4466 12.4609-13.9177Q12.4609-12.3264 13.5284-11.2589Q14.5958-10.1915 16.1248-10.1915ZM16.1248-31.4495L107.492-31.4495Q109.021-31.4495 110.12-32.5424Q111.219-33.6353 111.219-35.1643Q111.219-36.7556 110.12-37.823Q109.021-38.8905 107.492-38.8905L16.1248-38.8905Q14.5958-38.8905 13.5284-37.823Q12.4609-36.7556 12.4609-35.1643Q12.4609-33.6353 13.5284-32.5424Q14.5958-31.4495 16.1248-31.4495ZM16.1248-52.7471L107.492-52.7471Q109.021-52.7471 110.12-53.8145Q111.219-54.882 111.219-56.4223Q111.219-58.0022 110.12-59.0697Q109.021-60.1371 107.492-60.1371L16.1248-60.1371Q14.5958-60.1371 13.5284-59.0697Q12.4609-58.0022 12.4609-56.4223Q12.4609-54.882 13.5284-53.8145Q14.5958-52.7471 16.1248-52.7471Z"/>
  </g>
  <g id="Light-M" transform="matrix(1 0 0 1 1091.85 1126)">
   <path d="M15.2969-10.1547L107.216-10.1547Q108.396-10.1547 109.255-10.9829Q110.115-11.8112 110.115-13.0529Q110.115-14.2323 109.255-15.0768Q108.396-15.9214 107.216-15.9214L15.2969-15.9214Q14.1175-15.9214 13.2892-15.0768Q12.4609-14.2323 12.4609-13.0529Q12.4609-11.8112 13.2892-10.9829Q14.1175-10.1547 15.2969-10.1547ZM15.2969-32.2406L107.216-32.2406Q108.396-32.2406 109.255-33.0852Q110.115-33.9297 110.115-35.1091Q110.115-36.3508 109.255-37.1791Q108.396-38.0073 107.216-38.0073L15.2969-38.0073Q14.1175-38.0073 13.2892-37.1791Q12.4609-36.3508 12.4609-35.1091Q12.4609-33.9297 13.2892-33.0852Q14.1175-32.2406 15.2969-32.2406ZM15.2969-54.3294L107.216-54.3294Q108.396-54.3294 109.255-55.1577Q110.115-55.9859 110.115-57.1951Q110.115-58.407 109.255-59.2353Q108.396-60.0635 107.216-60.0635L15.2969-60.0635Q14.1175-60.0635 13.2892-59.2353Q12.4609-58.407 12.4609-57.1951Q12.4609-55.9859 13.2892-55.1577Q14.1175-54.3294 15.2969-54.3294Z"/>
  </g>
  <g id="Thin-M" transform="matrix(1 0 0 1 795.864 1126)">
   <path d="M14.2018-10.106L106.851-10.106Q107.568-10.106 108.111-10.6179Q108.655-11.1298 108.655-11.9092Q108.655-12.6262 108.111-13.1423Q107.568-13.6583 106.851-13.6583L14.2018-13.6583Q13.4848-13.6583 12.9729-13.1423Q12.4609-12.6262 12.4609-11.9092Q12.4609-11.1298 12.9729-10.6179Q13.4848-10.106 14.2018-10.106ZM14.2018-33.287L106.851-33.287Q107.568-33.287 108.111-33.803Q108.655-34.3191 108.655-35.0361Q108.655-35.8154 108.111-36.3274Q107.568-36.8393 106.851-36.8393L14.2018-36.8393Q13.4848-36.8393 12.9729-36.3274Q12.4609-35.8154 12.4609-35.0361Q12.4609-34.3191 12.9729-33.803Q13.4848-33.287 14.2018-33.287ZM14.2018-56.4221L106.851-56.4221Q107.568-56.4221 108.111-56.9341Q108.655-57.446 108.655-58.2171Q108.655-58.9424 108.111-59.4543Q107.568-59.9662 106.851-59.9662L14.2018-59.9662Q13.4848-59.9662 12.9729-59.4543Q12.4609-58.9424 12.4609-58.2171Q12.4609-57.446 12.9729-56.9341Q13.4848-56.4221 14.2018-56.4221Z"/>
  </g>
  <g id="Ultralight-M" transform="matrix(1 0 0 1 499.527 1126)">
   <path d="M13.6409-10.0811L106.664-10.0811Q107.145-10.0811 107.526-10.431Q107.907-10.7809 107.907-11.3234Q107.907-11.8036 107.526-12.1514Q107.145-12.4992 106.664-12.4992L13.6409-12.4992Q13.1607-12.4992 12.8108-12.1514Q12.4609-11.8036 12.4609-11.3234Q12.4609-10.7809 12.8108-10.431Q13.1607-10.0811 13.6409-10.0811ZM13.6409-33.8229L106.664-33.8229Q107.145-33.8229 107.526-34.1707Q107.907-34.5185 107.907-34.9987Q107.907-35.5412 107.526-35.8911Q107.145-36.241 106.664-36.241L13.6409-36.241Q13.1607-36.241 12.8108-35.8911Q12.4609-35.5412 12.4609-34.9987Q12.4609-34.5185 12.8108-34.1707Q13.1607-33.8229 13.6409-33.8229ZM13.6409-57.494L106.664-57.494Q107.145-57.494 107.526-57.8439Q107.907-58.1938 107.907-58.7406Q107.907-59.2166 107.526-59.5665Q107.145-59.9164 106.664-59.9164L13.6409-59.9164Q13.1607-59.9164 12.8108-59.5665Q12.4609-59.2166 12.4609-58.7406Q12.4609-58.1938 12.8108-57.8439Q13.1607-57.494 13.6409-57.494Z"/>
  </g>
  <g id="Black-S" transform="matrix(1 0 0 1 2881.94 696)">
   <path d="M15.8691-8.78906L87.0605-8.78906Q89.6484-8.78906 91.4062-10.7178Q93.1641-12.6465 93.1641-15.1367Q93.1641-17.7246 91.4062-19.6045Q89.6484-21.4844 87.0605-21.4844L15.8691-21.4844Q13.3301-21.4844 11.5479-19.5801Q9.76562-17.6758 9.76562-15.1367Q9.76562-12.7441 11.5479-10.7666Q13.3301-8.78906 15.8691-8.78906ZM15.8691-28.9062L87.0605-28.9062Q89.6484-28.9062 91.4062-30.835Q93.1641-32.7637 93.1641-35.2539Q93.1641-37.8418 91.4062-39.7217Q89.6484-41.6016 87.0605-41.6016L15.8691-41.6016Q13.3301-41.6016 11.5479-39.6973Q9.76562-37.793 9.76562-35.2539Q9.76562-32.8613 11.5479-30.8838Q13.3301-28.9062 15.8691-28.9062ZM15.8691-48.9746L87.0605-48.9746Q89.6484-48.9746 91.4062-50.9033Q93.1641-52.832 93.1641-55.3223Q93.1641-57.9102 91.4062-59.79Q89.6484-61.6699 87.0605-61.6699L15.8691-61.6699Q13.3301-61.6699 11.5479-59.7656Q9.76562-57.8613 9.76562-55.3223Q9.76562-52.9297 11.5479-50.9521Q13.3301-48.9746 15.8691-48.9746Z"/>
  </g>
  <g id="Heavy-S" transform="matrix(1 0 0 1 2585.87 696)">
   <path d="M15.2007-10.4025L86.4267-10.4025Q88.7265-10.4025 90.2999-12.1007Q91.8733-13.7989 91.8733-16.0356Q91.8733-18.3354 90.2999-20.0021Q88.7265-21.6688 86.4267-21.6688L15.2007-21.6688Q12.9382-21.6688 11.3519-19.9834Q9.76562-18.2981 9.76562-16.0356Q9.76562-13.8735 11.3519-12.138Q12.9382-10.4025 15.2007-10.4025ZM15.2007-29.6092L86.4267-29.6092Q88.7265-29.6092 90.2999-31.3132Q91.8733-33.0172 91.8733-35.2424Q91.8733-37.5537 90.2999-39.2146Q88.7265-40.8755 86.4267-40.8755L15.2007-40.8755Q12.9382-40.8755 11.3519-39.196Q9.76562-37.5164 9.76562-35.2424Q9.76562-33.0918 11.3519-31.3505Q12.9382-29.6092 15.2007-29.6092ZM15.2007-48.7902L86.4267-48.7902Q88.7265-48.7902 90.2999-50.4884Q91.8733-52.1867 91.8733-54.4118Q91.8733-56.7231 90.2999-58.3841Q88.7265-60.045 86.4267-60.045L15.2007-60.045Q12.9382-60.045 11.3519-58.3654Q9.76562-56.6858 9.76562-54.4118Q9.76562-52.2613 11.3519-50.5257Q12.9382-48.7902 15.2007-48.7902Z"/>
  </g>
  <g id="Bold-S" transform="matrix(1 0 0 1 2289.88 696)">
   <path d="M14.4531-12.207L85.7178-12.207Q87.6953-12.207 89.0625-13.6475Q90.4297-15.0879 90.4297-17.041Q90.4297-19.0186 89.0625-20.4468Q87.6953-21.875 85.7178-21.875L14.4531-21.875Q12.5-21.875 11.1328-20.4346Q9.76562-18.9941 9.76562-17.041Q9.76562-15.1367 11.1328-13.6719Q12.5-12.207 14.4531-12.207ZM14.4531-30.3955L85.7178-30.3955Q87.6953-30.3955 89.0625-31.8481Q90.4297-33.3008 90.4297-35.2295Q90.4297-37.2314 89.0625-38.6475Q87.6953-40.0635 85.7178-40.0635L14.4531-40.0635Q12.5-40.0635 11.1328-38.6353Q9.76562-37.207 9.76562-35.2295Q9.76562-33.3496 11.1328-31.8726Q12.5-30.3955 14.4531-30.3955ZM14.4531-48.584L85.7178-48.584Q87.6953-48.584 89.0625-50.0244Q90.4297-51.4648 90.4297-53.3936Q90.4297-55.3955 89.0625-56.8115Q87.6953-58.2275 85.7178-58.2275L14.4531-58.2275Q12.5-58.2275 11.1328-56.7993Q9.76562-55.3711 9.76562-53.3936Q9.76562-51.5137 11.1328-50.0488Q12.5-48.584 14.4531-48.584Z"/>
  </g>
  <g id="Semibold-S" transform="matrix(1 0 0 1 1993.67 696)">
   <path d="M13.9377-13.4512L85.229-13.4512Q86.9844-13.4512 88.2094-14.7139Q89.4344-15.9766 89.4344-17.7342Q89.4344-19.4896 88.2094-20.7534Q86.9844-22.0172 85.229-22.0172L13.9377-22.0172Q12.1979-22.0172 10.9817-20.7456Q9.76562-19.474 9.76562-17.7342Q9.76562-16.0076 10.9817-14.7294Q12.1979-13.4512 13.9377-13.4512ZM13.9377-30.9376L85.229-30.9376Q86.9844-30.9376 88.2094-32.2169Q89.4344-33.4963 89.4344-35.2206Q89.4344-37.0093 88.2094-38.2564Q86.9844-39.5036 85.229-39.5036L13.9377-39.5036Q12.1979-39.5036 10.9817-38.2487Q9.76562-36.9937 9.76562-35.2206Q9.76562-33.5273 10.9817-32.2325Q12.1979-30.9376 13.9377-30.9376ZM13.9377-48.4418L85.229-48.4418Q86.9844-48.4418 88.2094-49.7045Q89.4344-50.9672 89.4344-52.6915Q89.4344-54.4802 88.2094-55.7273Q86.9844-56.9745 85.229-56.9745L13.9377-56.9745Q12.1979-56.9745 10.9817-55.7196Q9.76562-54.4646 9.76562-52.6915Q9.76562-50.9982 10.9817-49.72Q12.1979-48.4418 13.9377-48.4418Z"/>
  </g>
  <g id="Medium-S" transform="matrix(1 0 0 1 1697.33 696)">
   <path d="M13.5469-14.3945L84.8584-14.3945Q86.4453-14.3945 87.5625-15.5225Q88.6797-16.6504 88.6797-18.2598Q88.6797-19.8467 87.5625-20.9858Q86.4453-22.125 84.8584-22.125L13.5469-22.125Q11.9688-22.125 10.8672-20.9814Q9.76562-19.8379 9.76562-18.2598Q9.76562-16.668 10.8672-15.5312Q11.9688-14.3945 13.5469-14.3945ZM13.5469-31.3486L84.8584-31.3486Q86.4453-31.3486 87.5625-32.4966Q88.6797-33.6445 88.6797-35.2139Q88.6797-36.8408 87.5625-37.96Q86.4453-39.0791 84.8584-39.0791L13.5469-39.0791Q11.9688-39.0791 10.8672-37.9556Q9.76562-36.832 9.76562-35.2139Q9.76562-33.6621 10.8672-32.5054Q11.9688-31.3486 13.5469-31.3486ZM13.5469-48.334L84.8584-48.334Q86.4453-48.334 87.5625-49.4619Q88.6797-50.5898 88.6797-52.1592Q88.6797-53.7861 87.5625-54.9053Q86.4453-56.0244 84.8584-56.0244L13.5469-56.0244Q11.9688-56.0244 10.8672-54.9009Q9.76562-53.7773 9.76562-52.1592Q9.76562-50.6074 10.8672-49.4707Q11.9688-48.334 13.5469-48.334Z"/>
  </g>
  <g id="Regular-S" transform="matrix(1 0 0 1 1401.11 696)">
   <path d="M13.0371-15.625L84.375-15.625Q85.7422-15.625 86.7188-16.5771Q87.6953-17.5293 87.6953-18.9453Q87.6953-20.3125 86.7188-21.2891Q85.7422-22.2656 84.375-22.2656L13.0371-22.2656Q11.6699-22.2656 10.7178-21.2891Q9.76562-20.3125 9.76562-18.9453Q9.76562-17.5293 10.7178-16.5771Q11.6699-15.625 13.0371-15.625ZM13.0371-31.8848L84.375-31.8848Q85.7422-31.8848 86.7188-32.8613Q87.6953-33.8379 87.6953-35.2051Q87.6953-36.6211 86.7188-37.5732Q85.7422-38.5254 84.375-38.5254L13.0371-38.5254Q11.6699-38.5254 10.7178-37.5732Q9.76562-36.6211 9.76562-35.2051Q9.76562-33.8379 10.7178-32.8613Q11.6699-31.8848 13.0371-31.8848ZM13.0371-48.1934L84.375-48.1934Q85.7422-48.1934 86.7188-49.1455Q87.6953-50.0977 87.6953-51.4648Q87.6953-52.8809 86.7188-53.833Q85.7422-54.7852 84.375-54.7852L13.0371-54.7852Q11.6699-54.7852 10.7178-53.833Q9.76562-52.8809 9.76562-51.4648Q9.76562-50.0977 10.7178-49.1455Q11.6699-48.1934 13.0371-48.1934Z"/>
  </g>
  <g id="Light-S" transform="matrix(1 0 0 1 1104.89 696)">
   <path d="M12.3047-15.5924L84.1309-15.5924Q85.1888-15.5924 85.9538-16.333Q86.7188-17.0736 86.7188-18.1803Q86.7188-19.2383 85.9538-19.9951Q85.1888-20.752 84.1309-20.752L12.3047-20.752Q11.2467-20.752 10.5062-19.9951Q9.76562-19.2383 9.76562-18.1803Q9.76562-17.0736 10.5062-16.333Q11.2467-15.5924 12.3047-15.5924ZM12.3047-32.5846L84.1309-32.5846Q85.1888-32.5846 85.9538-33.3415Q86.7188-34.0983 86.7188-35.1562Q86.7188-36.263 85.9538-37.0036Q85.1888-37.7441 84.1309-37.7441L12.3047-37.7441Q11.2467-37.7441 10.5062-37.0036Q9.76562-36.263 9.76562-35.1562Q9.76562-34.0983 10.5062-33.3415Q11.2467-32.5846 12.3047-32.5846ZM12.3047-49.5931L84.1309-49.5931Q85.1888-49.5931 85.9538-50.3337Q86.7188-51.0742 86.7188-52.1484Q86.7188-53.2389 85.9538-53.9795Q85.1888-54.7201 84.1309-54.7201L12.3047-54.7201Q11.2467-54.7201 10.5062-53.9795Q9.76562-53.2389 9.76562-52.1484Q9.76562-51.0742 10.5062-50.3337Q11.2467-49.5931 12.3047-49.5931Z"/>
  </g>
  <g id="Thin-S" transform="matrix(1 0 0 1 808.826 696)">
   <path d="M11.336-15.5494L83.808-15.5494Q84.4569-15.5494 84.942-16.0101Q85.4272-16.4708 85.4272-17.1686Q85.4272-17.8175 84.942-18.2838Q84.4569-18.75 83.808-18.75L11.336-18.75Q10.6871-18.75 10.2263-18.2838Q9.76562-17.8175 9.76562-17.1686Q9.76562-16.4708 10.2263-16.0101Q10.6871-15.5494 11.336-15.5494ZM11.336-33.5103L83.808-33.5103Q84.4569-33.5103 84.942-33.9765Q85.4272-34.4427 85.4272-35.0917Q85.4272-35.7894 84.942-36.2502Q84.4569-36.7109 83.808-36.7109L11.336-36.7109Q10.6871-36.7109 10.2263-36.2502Q9.76562-35.7894 9.76562-35.0917Q9.76562-34.4427 10.2263-33.9765Q10.6871-33.5103 11.336-33.5103ZM11.336-51.4444L83.808-51.4444Q84.4569-51.4444 84.942-51.9051Q85.4272-52.3658 85.4272-53.0525Q85.4272-53.7125 84.942-54.1732Q84.4569-54.6339 83.808-54.6339L11.336-54.6339Q10.6871-54.6339 10.2263-54.1732Q9.76562-53.7125 9.76562-53.0525Q9.76562-52.3658 10.2263-51.9051Q10.6871-51.4444 11.336-51.4444Z"/>
  </g>
  <g id="Ultralight-S" transform="matrix(1 0 0 1 512.445 696)">
   <path d="M10.8398-15.5273L83.6426-15.5273Q84.082-15.5273 84.4238-15.8447Q84.7656-16.1621 84.7656-16.6504Q84.7656-17.0898 84.4238-17.4072Q84.082-17.7246 83.6426-17.7246L10.8398-17.7246Q10.4004-17.7246 10.083-17.4072Q9.76562-17.0898 9.76562-16.6504Q9.76562-16.1621 10.083-15.8447Q10.4004-15.5273 10.8398-15.5273ZM10.8398-33.9844L83.6426-33.9844Q84.082-33.9844 84.4238-34.3018Q84.7656-34.6191 84.7656-35.0586Q84.7656-35.5469 84.4238-35.8643Q84.082-36.1816 83.6426-36.1816L10.8398-36.1816Q10.4004-36.1816 10.083-35.8643Q9.76562-35.5469 9.76562-35.0586Q9.76562-34.6191 10.083-34.3018Q10.4004-33.9844 10.8398-33.9844ZM10.8398-52.3926L83.6426-52.3926Q84.082-52.3926 84.4238-52.71Q84.7656-53.0273 84.7656-53.5156Q84.7656-53.9551 84.4238-54.2725Q84.082-54.5898 83.6426-54.5898L10.8398-54.5898Q10.4004-54.5898 10.083-54.2725Q9.76562-53.9551 9.76562-53.5156Q9.76562-53.0273 10.083-52.71Q10.4004-52.3926 10.8398-52.3926Z"/>
  </g>
 </g>
</svg>
